<svg width="39" height="39" viewBox="0 0 39 39" fill="none" xmlns="http://www.w3.org/2000/svg">
<path d="M22.0884 8L20.5027 4.80602C19.9692 3.73133 18.4279 3.73133 17.8944 4.80602L17.1016 6.40301" stroke="black" stroke-width="2.4" stroke-linecap="round" stroke-linejoin="round"/>
<path d="M24.0195 11.8828L24.6621 13.1772L26.9857 13.5149" stroke="black" stroke-width="2.4" stroke-linecap="round" stroke-linejoin="round"/>
<path d="M31.6328 14.1914L33.9564 14.5291C35.1488 14.7024 35.6241 16.1598 34.7608 16.9959L33.0798 18.6238" stroke="black" stroke-width="2.4" stroke-linecap="round" stroke-linejoin="round"/>
<path d="M29.7162 21.8789L28.0352 23.5068L28.4319 25.8067" stroke="black" stroke-width="2.4" stroke-linecap="round" stroke-linejoin="round"/>
<path d="M29.2251 30.4062L29.6218 32.7061C29.8256 33.8875 28.5784 34.7884 27.5114 34.2305L25.4336 33.144" stroke="black" stroke-width="2.4" stroke-linecap="round" stroke-linejoin="round"/>
<path d="M16.6836 31.2L19.1989 29.8848L21.2767 30.9712" stroke="black" stroke-width="2.4" stroke-linecap="round" stroke-linejoin="round"/>
<path d="M9.07588 30.9902L8.77988 32.7062C8.57609 33.8876 9.82331 34.7884 10.8903 34.2305L12.2459 33.5217" stroke="black" stroke-width="2.4" stroke-linecap="round" stroke-linejoin="round"/>
<path d="M10.0046 25.5996L10.3657 23.5064L9.25391 22.4297" stroke="black" stroke-width="2.4" stroke-linecap="round" stroke-linejoin="round"/>
<path d="M5.91722 19.1995L3.64042 16.9946C2.7771 16.1585 3.25237 14.7011 4.44486 14.5278L6.22204 14.2695" stroke="black" stroke-width="2.4" stroke-linecap="round" stroke-linejoin="round"/>
<path d="M11.1992 13.5458L13.739 13.1767L15.0242 10.5879" stroke="black" stroke-width="2.4" stroke-linecap="round" stroke-linejoin="round"/>
</svg>
