<svg width="31" height="35" viewBox="0 0 31 35" fill="none" xmlns="http://www.w3.org/2000/svg">
<path d="M15.5 5.09375C12.6075 5.09375 9.77986 5.95149 7.37479 7.55851C4.96972 9.16552 3.0952 11.4496 1.98827 14.122C0.881337 16.7944 0.591713 19.735 1.15602 22.5719C1.72033 25.4089 3.11323 28.0148 5.15857 30.0602C7.20391 32.1055 9.80984 33.4984 12.6468 34.0627C15.4838 34.627 18.4244 34.3374 21.0968 33.2305C23.7691 32.1236 26.0532 30.249 27.6602 27.844C29.2673 25.4389 30.125 22.6113 30.125 19.7188C30.1206 15.8413 28.5783 12.124 25.8365 9.38221C23.0948 6.64045 19.3774 5.09819 15.5 5.09375ZM15.5 31.9063C13.0895 31.9063 10.7332 31.1915 8.72899 29.8523C6.72477 28.5131 5.16267 26.6097 4.24022 24.3827C3.31778 22.1557 3.07643 19.7052 3.54669 17.3411C4.01694 14.9769 5.17769 12.8053 6.88214 11.1009C8.5866 9.39643 10.7582 8.23569 13.1223 7.76543C15.4865 7.29517 17.937 7.53653 20.164 8.45897C22.3909 9.38141 24.2944 10.9435 25.6335 12.9477C26.9727 14.952 27.6875 17.3083 27.6875 19.7188C27.6839 22.95 26.3987 26.0478 24.1139 28.3326C21.8291 30.6174 18.7312 31.9026 15.5 31.9063ZM22.456 12.7627C22.5693 12.8759 22.6592 13.0103 22.7206 13.1583C22.7819 13.3062 22.8135 13.4648 22.8135 13.625C22.8135 13.7852 22.7819 13.9438 22.7206 14.0917C22.6592 14.2397 22.5693 14.3741 22.456 14.4873L16.3623 20.581C16.249 20.6943 16.1146 20.7841 15.9667 20.8454C15.8187 20.9066 15.6601 20.9382 15.5 20.9382C15.3399 20.9382 15.1813 20.9066 15.0334 20.8454C14.8854 20.7841 14.751 20.6943 14.6377 20.581C14.5245 20.4678 14.4347 20.3334 14.3734 20.1854C14.3121 20.0375 14.2806 19.8789 14.2806 19.7188C14.2806 19.5586 14.3121 19.4 14.3734 19.2521C14.4347 19.1041 14.5245 18.9697 14.6377 18.8565L20.7315 12.7627C20.8447 12.6494 20.9791 12.5595 21.127 12.4982C21.275 12.4369 21.4336 12.4053 21.5938 12.4053C21.7539 12.4053 21.9125 12.4369 22.0605 12.4982C22.2084 12.5595 22.3428 12.6494 22.456 12.7627ZM10.625 1.4375C10.625 1.11427 10.7534 0.804274 10.982 0.575714C11.2105 0.347154 11.5205 0.21875 11.8438 0.21875H19.1563C19.4795 0.21875 19.7895 0.347154 20.018 0.575714C20.2466 0.804274 20.375 1.11427 20.375 1.4375C20.375 1.76073 20.2466 2.07073 20.018 2.29929C19.7895 2.52785 19.4795 2.65625 19.1563 2.65625H11.8438C11.5205 2.65625 11.2105 2.52785 10.982 2.29929C10.7534 2.07073 10.625 1.76073 10.625 1.4375Z" fill="#080808"/>
</svg>
