<svg width="22" height="21" viewBox="0 0 22 21" fill="none" xmlns="http://www.w3.org/2000/svg">
<g clip-path="url(#clip0_615_12495)">
<path d="M21.0679 11.5021C21.0679 11.6696 21.0013 11.8303 20.8828 11.9488C20.7643 12.0673 20.6036 12.1339 20.436 12.1339H16.6451C16.4775 12.1339 16.3168 12.0673 16.1983 11.9488C16.0798 11.8303 16.0133 11.6696 16.0133 11.5021C16.0133 11.3345 16.0798 11.1738 16.1983 11.0553C16.3168 10.9368 16.4775 10.8702 16.6451 10.8702H20.436C20.6036 10.8702 20.7643 10.9368 20.8828 11.0553C21.0013 11.1738 21.0679 11.3345 21.0679 11.5021ZM16.4974 16.1499C16.6053 16.2783 16.6577 16.4443 16.6432 16.6114C16.6287 16.7785 16.5484 16.9329 16.42 17.0408C16.2916 17.1487 16.1256 17.2011 15.9585 17.1866C15.7915 17.1721 15.637 17.0918 15.5291 16.9634C13.9401 15.0711 11.7555 14.0294 9.37908 14.0294C7.00262 14.0294 4.81808 15.0711 3.22904 16.9634C3.12117 17.0917 2.96675 17.1719 2.79975 17.1863C2.63275 17.2008 2.46686 17.1483 2.33856 17.0404C2.21026 16.9325 2.13007 16.7781 2.11563 16.6111C2.10119 16.4441 2.15368 16.2782 2.26156 16.1499C3.44149 14.7457 4.90891 13.7482 6.53981 13.2143C5.54935 12.5974 4.78675 11.6747 4.36738 10.5858C3.94802 9.49691 3.89471 8.30105 4.21552 7.17915C4.53633 6.05725 5.2138 5.07035 6.14545 4.36777C7.07709 3.66519 8.21221 3.28516 9.37908 3.28516C10.5459 3.28516 11.6811 3.66519 12.6127 4.36777C13.5444 5.07035 14.2218 6.05725 14.5426 7.17915C14.8635 8.30105 14.8101 9.49691 14.3908 10.5858C13.9714 11.6747 13.2088 12.5974 12.2184 13.2143C13.8493 13.7482 15.3167 14.7457 16.4974 16.1499ZM9.37908 12.7657C10.1913 12.7657 10.9854 12.5248 11.6607 12.0736C12.3361 11.6223 12.8625 10.9809 13.1733 10.2305C13.4842 9.48004 13.5655 8.65428 13.407 7.85763C13.2486 7.06097 12.8574 6.3292 12.2831 5.75484C11.7087 5.18049 10.9769 4.78934 10.1803 4.63088C9.38364 4.47242 8.55788 4.55375 7.80745 4.86458C7.05702 5.17542 6.41561 5.70181 5.96434 6.37718C5.51307 7.05256 5.27221 7.84658 5.27221 8.65884C5.27346 9.74767 5.70655 10.7915 6.47647 11.5615C7.24639 12.3314 8.29026 12.7645 9.37908 12.7657Z" fill="#FF3347"/>
</g>
<defs>
<clipPath id="clip0_615_12495">
<rect width="20.2184" height="20.2184" fill="white" transform="translate(0.850098 0.761719)"/>
</clipPath>
</defs>
</svg>
