<svg width="20" height="21" viewBox="0 0 20 21" fill="none" xmlns="http://www.w3.org/2000/svg">
<g clip-path="url(#clip0_384_30906)">
<path d="M20.0057 10.6691C20.0057 10.8349 19.9398 10.9939 19.8226 11.1111C19.7054 11.2283 19.5464 11.2941 19.3807 11.2941H18.1307V12.5441C18.1307 12.7099 18.0648 12.8689 17.9476 12.9861C17.8304 13.1033 17.6714 13.1691 17.5057 13.1691C17.3399 13.1691 17.1809 13.1033 17.0637 12.9861C16.9465 12.8689 16.8807 12.7099 16.8807 12.5441V11.2941H15.6307C15.4649 11.2941 15.3059 11.2283 15.1887 11.1111C15.0715 10.9939 15.0057 10.8349 15.0057 10.6691C15.0057 10.5034 15.0715 10.3444 15.1887 10.2272C15.3059 10.11 15.4649 10.0441 15.6307 10.0441H16.8807V8.79414C16.8807 8.62838 16.9465 8.46941 17.0637 8.3522C17.1809 8.23499 17.3399 8.16914 17.5057 8.16914C17.6714 8.16914 17.8304 8.23499 17.9476 8.3522C18.0648 8.46941 18.1307 8.62838 18.1307 8.79414V10.0441H19.3807C19.5464 10.0441 19.7054 10.11 19.8226 10.2272C19.9398 10.3444 20.0057 10.5034 20.0057 10.6691ZM15.4846 15.2668C15.5913 15.3938 15.6432 15.558 15.6288 15.7233C15.6144 15.8885 15.535 16.0413 15.408 16.148C15.281 16.2548 15.1168 16.3066 14.9515 16.2923C14.7863 16.2779 14.6335 16.1985 14.5268 16.0715C12.9549 14.1996 10.7939 13.1691 8.44316 13.1691C6.09238 13.1691 3.93144 14.1996 2.35956 16.0715C2.25285 16.1984 2.1001 16.2777 1.93491 16.292C1.76972 16.3063 1.60561 16.2544 1.4787 16.1477C1.35179 16.0409 1.27247 15.8882 1.25819 15.723C1.2439 15.5578 1.29582 15.3937 1.40253 15.2668C2.56972 13.8777 4.02128 12.891 5.63456 12.3629C4.6548 11.7527 3.90044 10.8399 3.48561 9.76279C3.07077 8.68565 3.01804 7.50271 3.33538 6.39293C3.65273 5.28315 4.32288 4.30692 5.24446 3.61194C6.16604 2.91695 7.2889 2.54102 8.44316 2.54102C9.59742 2.54102 10.7203 2.91695 11.6419 3.61194C12.5634 4.30692 13.2336 5.28315 13.5509 6.39293C13.8683 7.50271 13.8155 8.68565 13.4007 9.76279C12.9859 10.8399 12.2315 11.7527 11.2517 12.3629C12.865 12.891 14.3166 13.8777 15.4846 15.2668ZM8.44316 11.9191C9.24664 11.9191 10.0321 11.6809 10.7002 11.2345C11.3682 10.7881 11.8889 10.1536 12.1964 9.41129C12.5039 8.66897 12.5843 7.85213 12.4276 7.06409C12.2708 6.27604 11.8839 5.55217 11.3158 4.98402C10.7476 4.41587 10.0238 4.02895 9.23571 3.8722C8.44766 3.71545 7.63083 3.7959 6.88851 4.10338C6.14618 4.41086 5.5117 4.93156 5.06531 5.59964C4.61892 6.26771 4.38066 7.05315 4.38066 7.85664C4.3819 8.9337 4.81031 9.96629 5.57191 10.7279C6.3335 11.4895 7.3661 11.9179 8.44316 11.9191Z" fill="#509999"/>
</g>
<defs>
<clipPath id="clip0_384_30906">
<rect width="20" height="20" fill="white" transform="translate(0.00585938 0.0439453)"/>
</clipPath>
</defs>
</svg>
